<svg viewBox="0 0 64 64" xmlns="http://www.w3.org/2000/svg"><g fill="#3e4347"><path d="m2.3 36.1c-.2-1-.3-2-.2-2.9 0-1.2.3-2.2.9-3.2.6-1.1 1.6-2 2.7-2.5 1.1-.6 2.5-.8 3.8-.6 1.2.1 2.4.6 3.4 1.3.9.6 1.7 1.4 2.4 2.3 1.1 1.5 1.9 3.3 2.3 5.4v.3c.2 1.3-.6 2.5-1.9 2.9-.2.1-.4.1-.6.1-.8.1-1.5-.1-2.1-.6s-1-1.1-1.1-1.9c-.2-1.4-.5-2.6-1.1-3.5-.5-.9-1.3-1.6-2.1-1.8-.3-.1-.7-.1-1 0-.4.1-.7.4-.9.7-.3.4-.5.8-.5 1.4-.1.6-.1 1.2 0 1.8.2 1.2.6 2.6 1.3 4 .3.6.7 1.3 1.1 2s.9 1.3 1.3 1.8c1.1 1.3 2.1 2.3 3.2 3.1 1.3.9 2.6 1.5 3.9 1.7s2.8.2 4.3-.3c1.2-.3 1.9.1 2.1.7.2.5-.1 1.3-1.3 1.7h-.1c-1.8.6-3.7.8-5.4.5-1.7-.2-3.5-1-5.2-2-1.4-.9-2.6-2.1-3.9-3.5-.5-.6-1-1.2-1.4-1.7l-.2-.3c-.6-.7-1.1-1.4-1.5-2.1-1.2-1.6-1.9-3.2-2.2-4.8m44.4 19.8c1.8 2.3 9.7 0 11-2.6 5.2-10.6 0-15.2 0-15.2l-11 1.5c0 .1-2.2 13.5 0 16.3"/><path d="m31.8 55.9c-1.8 2.3-9.7 0-11-2.6-5.2-10.6 0-15.2 0-15.2l11 1.5c0 .1 2.3 13.5 0 16.3"/></g><path d="m34.5 55.2c-.1 1.1-2.6 1.7-5.6 1.4s-5.3-1.3-5.3-2.4c.1-1.1 2.4.3 5.4.5 3.1.4 5.6-.5 5.5.5m9.5 0c.1 1.1 2.6 1.7 5.6 1.4s5.3-1.3 5.3-2.4c-.1-1.1-2.4.3-5.4.5-3.1.4-5.6-.5-5.5.5" fill="#fff"/><g fill="#4c5359"><path d="m39.2 60.4c2 2.2 8.9 2.1 11.1 0 3-3 2.9-16.7 3-23.3l-13-1.1c.1 0-3.6 21.5-1.1 24.4"/><path d="m39.3 60.4c-2 2.2-8.9 2.1-11.1 0-3-3-2.9-16.7-3-23.3l13-1.1s3.6 21.5 1.1 24.4"/></g><path d="m34 43.7 5.3 11.2 5.3-11.2z" fill="#fff"/><path d="m59.9 2.2c-2.4-1.4-14.8 5.1-17.3 9.5l17.9 10.6c2.4-4.3 1.7-18.8-.6-20.1" fill="#4c5359"/><path d="m56.2 8.8c-.9-.5-8.2 2.8-9.6 5.2l10 5.9c1.3-2.3.4-10.6-.4-11.1" fill="#f7a4a4"/><path d="m18.7 2.2c-2.4 1.4-3.1 15.7-.6 20.1l17.9-10.6c-2.4-4.3-15-10.9-17.3-9.5z" fill="#4c5359"/><path d="m22.5 8.8c-.9.5-1.8 8.7-.4 11.1l9.9-5.9c-1.3-2.3-8.7-5.7-9.5-5.2" fill="#f7a4a4"/><path d="m39.3 9.4c-20.8 0-22.8 14.6-22.8 22.7 0 3.4 10.2 13.9 22.7 13.9 12.6 0 22.8-10.5 22.8-13.9 0-8.1-2-22.7-22.7-22.7" fill="#4c5359"/><path d="m33.5 28.5s-2.4 3.6-6.8 2.5-4.6-5.4-4.6-5.4 2.4-3.6 6.8-2.5c4.4 1.2 4.6 5.4 4.6 5.4" fill="#bfffab"/><path d="m33 26.7s-2.1 2.3-5 2.3c-3.1 0-5-4.4-5-4.4s2.1-2.4 5.8-1.4c3.5.8 4.2 3.5 4.2 3.5" fill="#93e67f"/><path d="m29.8 26.6c0 4.9-2.4 4.9-2.4 0s2.4-4.9 2.4 0" fill="#4c5359"/><path d="m45.1 28.5s2.4 3.6 6.8 2.5 4.6-5.4 4.6-5.4-2.4-3.6-6.8-2.5c-4.4 1.2-4.6 5.4-4.6 5.4" fill="#bfffab"/><path d="m45.5 26.7s2.1 2.3 5 2.3c3.1 0 5-4.4 5-4.4s-2.1-2.4-5.8-1.4c-3.5.8-4.2 3.5-4.2 3.5" fill="#93e67f"/><path d="m48.7 26.6c0 4.9 2.4 4.9 2.4 0 .1-4.9-2.4-4.9-2.4 0" fill="#4c5359"/><path d="m45.9 32.5c-2-1.5-4.2-6.5-6.6-6.5s-4.7 5-6.6 6.5c-3.1 2.4-11.5 5.1-11.5 5.1s8.9 7.6 18.1 7.6 18.1-7.6 18.1-7.6-8.4-2.7-11.5-5.1" fill="#fff"/><g fill="#4c5359"><path d="m45.7 39.3c-.7.4-1.6.6-2.4.6-.8-.1-1.6-.3-2.2-.8s-1.1-1.2-1.2-1.9l-.6-3.3-.6 3.3c-.1.8-.6 1.4-1.2 1.9s-1.4.8-2.2.8c-.9 0-1.7-.1-2.4-.6-.7-.4-1.4-1.1-1.7-2 0 1 .6 1.9 1.3 2.5s1.8 1 2.7 1.1c1 .1 2-.2 2.9-.8.5-.3.8-.7 1.2-1.2.3.5.7.9 1.2 1.2.9.6 1.9.9 2.9.8 1 0 2-.4 2.7-1.1.8-.6 1.3-1.6 1.3-2.5-.3.9-.9 1.6-1.7 2"/><path d="m42.4 33.1c-.6-.7-2.5-.8-3.1-.8s-2.5.1-3.1.8c-.4.5-.1 1.8 1.1 3 .7.7 1.4.9 2 .9s1.3-.2 2-.9c1.2-1.2 1.5-2.5 1.1-3"/></g><path d="m39 59.6c0 1.1-2.3 1.9-5.2 1.9s-5.2-.9-5.2-1.9c0-1.1 2.3.1 5.2.1 2.8 0 5.2-1.1 5.2-.1m10.9 0c0 1.1-2.3 1.9-5.2 1.9s-5.2-.9-5.2-1.9c0-1.1 2.3.1 5.2.1s5.2-1.1 5.2-.1" fill="#fff"/><path d="m29.6 61.2 1.4-2.4-.4 2.8zm3.5.8.5-3.3.5 3.3zm3.9-.4-.4-2.6 1.4 2.3zm11 0-.4-2.8 1.4 2.4zm-3.6.4.5-3.3.5 3.3zm-3.9-.7 1.4-2.3-.4 2.6z" fill="#3e4347"/></svg>